<mxfile host="app.diagrams.net" modified="2024-03-13T15:22:34.612Z" agent="Mozilla/5.0 (X11; Linux x86_64) AppleWebKit/537.36 (KHTML, like Gecko) Chrome/122.0.0.0 Safari/537.36" etag="YQX8kwcUSp_nBQwf4bb9" version="24.0.3" type="github">
  <diagram name="Page-1" id="6gWPEMETjJz6Jln8jHfX">
    <mxGraphModel dx="2058" dy="1103" grid="1" gridSize="10" guides="1" tooltips="1" connect="1" arrows="1" fold="1" page="1" pageScale="1" pageWidth="850" pageHeight="1100" math="0" shadow="0">
      <root>
        <mxCell id="0" />
        <mxCell id="1" parent="0" />
        <mxCell id="sM3u0f4Afnb12L3-TfQ_-14" value="Anfang" style="text;html=1;align=center;verticalAlign=middle;whiteSpace=wrap;rounded=0;" parent="1" vertex="1">
          <mxGeometry x="378" y="88" width="60" height="30" as="geometry" />
        </mxCell>
        <mxCell id="sM3u0f4Afnb12L3-TfQ_-10" value="Anfang" style="text;html=1;align=center;verticalAlign=middle;whiteSpace=wrap;rounded=0;" parent="1" vertex="1">
          <mxGeometry x="3" y="88" width="60" height="30" as="geometry" />
        </mxCell>
        <mxCell id="sM3u0f4Afnb12L3-TfQ_-1" value="" style="endArrow=none;html=1;rounded=0;" parent="1" edge="1">
          <mxGeometry width="50" height="50" relative="1" as="geometry">
            <mxPoint x="98" y="88" as="sourcePoint" />
            <mxPoint x="343" y="88" as="targetPoint" />
          </mxGeometry>
        </mxCell>
        <mxCell id="sM3u0f4Afnb12L3-TfQ_-2" value="" style="endArrow=none;html=1;rounded=0;" parent="1" source="sM3u0f4Afnb12L3-TfQ_-6" target="sM3u0f4Afnb12L3-TfQ_-7" edge="1">
          <mxGeometry width="50" height="50" relative="1" as="geometry">
            <mxPoint x="100" y="68" as="sourcePoint" />
            <mxPoint x="340" y="68" as="targetPoint" />
            <Array as="points">
              <mxPoint x="140" y="28" />
              <mxPoint x="300" y="28" />
            </Array>
          </mxGeometry>
        </mxCell>
        <mxCell id="sM3u0f4Afnb12L3-TfQ_-3" value="" style="endArrow=none;html=1;rounded=0;exitX=0;exitY=0;exitDx=0;exitDy=0;" parent="1" source="sM3u0f4Afnb12L3-TfQ_-10" target="sM3u0f4Afnb12L3-TfQ_-6" edge="1">
          <mxGeometry width="50" height="50" relative="1" as="geometry">
            <mxPoint x="40" y="88" as="sourcePoint" />
            <mxPoint x="40" y="88" as="targetPoint" />
          </mxGeometry>
        </mxCell>
        <mxCell id="sM3u0f4Afnb12L3-TfQ_-4" value="" style="endArrow=none;html=1;rounded=0;entryX=1;entryY=0;entryDx=0;entryDy=0;" parent="1" source="sM3u0f4Afnb12L3-TfQ_-7" target="sM3u0f4Afnb12L3-TfQ_-14" edge="1">
          <mxGeometry width="50" height="50" relative="1" as="geometry">
            <mxPoint x="410" y="86" as="sourcePoint" />
            <mxPoint x="400" y="88" as="targetPoint" />
          </mxGeometry>
        </mxCell>
        <mxCell id="sM3u0f4Afnb12L3-TfQ_-6" value="1" style="ellipse;whiteSpace=wrap;html=1;aspect=fixed;" parent="1" vertex="1">
          <mxGeometry x="63" y="71" width="35" height="35" as="geometry" />
        </mxCell>
        <mxCell id="sM3u0f4Afnb12L3-TfQ_-7" value="2" style="ellipse;whiteSpace=wrap;html=1;aspect=fixed;" parent="1" vertex="1">
          <mxGeometry x="343" y="71" width="35" height="35" as="geometry" />
        </mxCell>
        <mxCell id="sM3u0f4Afnb12L3-TfQ_-11" value="Ablenkung" style="text;html=1;align=center;verticalAlign=middle;whiteSpace=wrap;rounded=0;rotation=-45;" parent="1" vertex="1">
          <mxGeometry x="70" y="28" width="60" height="30" as="geometry" />
        </mxCell>
        <mxCell id="sM3u0f4Afnb12L3-TfQ_-12" value="Gerade" style="text;html=1;align=center;verticalAlign=middle;whiteSpace=wrap;rounded=0;" parent="1" vertex="1">
          <mxGeometry x="98" y="88" width="60" height="30" as="geometry" />
        </mxCell>
        <mxCell id="sM3u0f4Afnb12L3-TfQ_-13" value="Gerade" style="text;html=1;align=center;verticalAlign=middle;whiteSpace=wrap;rounded=0;" parent="1" vertex="1">
          <mxGeometry x="283" y="88" width="60" height="30" as="geometry" />
        </mxCell>
        <mxCell id="sM3u0f4Afnb12L3-TfQ_-15" value="Ablenkung" style="text;html=1;align=center;verticalAlign=middle;whiteSpace=wrap;rounded=0;rotation=45;" parent="1" vertex="1">
          <mxGeometry x="310" y="28" width="60" height="30" as="geometry" />
        </mxCell>
        <mxCell id="ISOry_faHnK0qy785eYx-1" value="Gleis 1" style="text;html=1;align=center;verticalAlign=middle;whiteSpace=wrap;rounded=0;" parent="1" vertex="1">
          <mxGeometry x="190" y="65" width="60" height="30" as="geometry" />
        </mxCell>
        <mxCell id="ISOry_faHnK0qy785eYx-2" value="Gleis 2" style="text;html=1;align=center;verticalAlign=middle;whiteSpace=wrap;rounded=0;" parent="1" vertex="1">
          <mxGeometry x="190" y="4" width="60" height="30" as="geometry" />
        </mxCell>
        <mxCell id="-zthtD0BzeRYrleFw7-B-1" value="" style="ellipse;whiteSpace=wrap;html=1;aspect=fixed;" vertex="1" parent="1">
          <mxGeometry x="215" y="110" width="10" height="10" as="geometry" />
        </mxCell>
        <mxCell id="-zthtD0BzeRYrleFw7-B-2" value="Leitstelle" style="rounded=0;whiteSpace=wrap;html=1;" vertex="1" parent="1">
          <mxGeometry x="180" y="123" width="80" height="20" as="geometry" />
        </mxCell>
        <mxCell id="-zthtD0BzeRYrleFw7-B-3" value="Gleis 100" style="text;html=1;align=center;verticalAlign=middle;resizable=0;points=[];autosize=1;strokeColor=none;fillColor=none;" vertex="1" parent="1">
          <mxGeometry x="3" y="58" width="70" height="30" as="geometry" />
        </mxCell>
        <mxCell id="-zthtD0BzeRYrleFw7-B-4" value="Gleis 200" style="text;html=1;align=center;verticalAlign=middle;whiteSpace=wrap;rounded=0;" vertex="1" parent="1">
          <mxGeometry x="378" y="58" width="60" height="30" as="geometry" />
        </mxCell>
      </root>
    </mxGraphModel>
  </diagram>
</mxfile>
